<?xml version="1.0" standalone="no"?>
<!DOCTYPE svg PUBLIC "-//W3C//DTD SVG 20010904//EN"
 "http://www.w3.org/TR/2001/REC-SVG-20010904/DTD/svg10.dtd">
<svg version="1.0" xmlns="http://www.w3.org/2000/svg"
 width="278.000000pt" height="278.000000pt" viewBox="0 0 278.000000 278.000000"
 preserveAspectRatio="xMidYMid meet">
<metadata>
Created by potrace 1.14, written by Peter Selinger 2001-2017
</metadata>
<g transform="translate(0.000000,278.000000) scale(0.100000,-0.100000)"
fill="#000000" stroke="none">
<path d="M510 1753 c-188 -66 -285 -298 -206 -494 22 -55 23 -59 5 -59 -10 0
-35 15 -56 33 l-37 32 20 -33 c25 -44 83 -96 136 -124 34 -18 59 -23 123 -23
69 0 87 4 125 27 56 33 85 63 105 110 19 48 19 61 -3 88 l-18 22 -42 -41 c-80
-77 -162 -87 -246 -28 -67 48 -90 100 -89 202 1 111 68 207 192 274 62 34 59
38 -9 14z"/>
<path d="M695 1679 c-138 -29 -239 -165 -181 -244 13 -18 16 -16 65 33 76 76
147 88 231 39 69 -41 99 -96 105 -189 7 -127 -61 -234 -200 -312 -26 -15 -27
-16 -5 -10 214 55 319 320 211 532 l-21 42 24 0 c13 0 29 -7 36 -16 8 -8 23
-20 34 -26 20 -11 20 -10 6 8 -41 51 -58 67 -104 99 -55 37 -143 57 -201 44z"/>
<path d="M687 1464 c4 -12 3 -15 -5 -10 -8 5 -12 0 -12 -14 0 -25 25 -37 45
-20 16 14 21 50 6 50 -5 0 -17 3 -25 6 -12 5 -15 2 -9 -12z"/>
<path d="M1106 1453 c-9 -31 -34 -181 -39 -238 -2 -19 5 -21 54 -17 12 2 18
17 23 64 4 34 10 66 13 71 3 5 14 -14 24 -43 34 -96 68 -123 83 -66 8 31 47
118 51 114 2 -2 7 -33 11 -68 3 -36 7 -66 9 -68 7 -8 65 -7 68 2 2 6 -5 68
-16 139 l-20 127 -37 0 c-36 0 -37 -1 -65 -71 -15 -38 -29 -69 -30 -67 -2 2
-14 32 -28 68 -23 62 -26 65 -60 68 -27 2 -37 -1 -41 -15z"/>
<path d="M1612 1333 l3 -138 65 0 c111 -1 173 50 173 141 0 87 -59 134 -171
134 l-73 0 3 -137z m145 51 c21 -21 24 -32 19 -62 -6 -42 -30 -64 -66 -60 -23
3 -24 7 -23 61 1 31 1 64 2 72 2 24 39 18 68 -11z"/>
<path d="M2598 1453 c-8 -10 -18 -25 -22 -33 -4 -8 -1 -7 7 3 9 10 24 25 34
32 10 8 13 15 7 15 -6 0 -18 -8 -26 -17z"/>
<path d="M2659 1447 c41 -45 8 -100 -49 -82 -11 3 -20 13 -20 21 0 8 -5 14
-10 14 -20 0 10 -40 34 -46 67 -17 103 69 44 105 -23 14 -23 13 1 -12z"/>
<path d="M773 1426 c0 -10 26 -42 28 -34 8 34 6 44 -10 45 -10 1 -18 -4 -18
-11z"/>
<path d="M2610 1423 c0 -10 12 -23 26 -30 21 -10 24 -10 14 2 -8 10 -8 14 1
17 18 6 1 28 -22 28 -11 0 -19 -7 -19 -17z m35 -3 c-3 -5 -10 -10 -16 -10 -5
0 -9 5 -9 10 0 6 7 10 16 10 8 0 12 -4 9 -10z"/>
<path d="M603 1419 c-13 -5 -23 -12 -24 -16 0 -4 -2 -15 -4 -24 -1 -9 9 -23
25 -32 26 -16 28 -15 45 3 11 13 15 27 11 43 -7 30 -23 37 -53 26z"/>
<path d="M385 1399 c-11 -16 -1 -19 13 -3 7 8 8 14 3 14 -5 0 -13 -5 -16 -11z"/>
<path d="M1478 1379 c-64 -24 -73 -134 -14 -170 42 -25 102 -26 109 0 6 25 -3
37 -32 38 -39 3 -57 27 -43 58 9 18 19 25 41 25 34 0 47 23 25 45 -17 17 -46
18 -86 4z"/>
<path d="M1918 1372 c-101 -62 -11 -227 93 -172 11 6 19 7 19 2 0 -17 60 -9
61 8 2 41 -3 165 -7 171 -2 4 -20 3 -39 -1 -19 -4 -37 -5 -39 -1 -9 14 -62 10
-88 -7z m102 -62 c15 -28 -4 -60 -35 -60 -31 0 -50 32 -35 60 6 12 21 20 35
20 14 0 29 -8 35 -20z"/>
<path d="M2120 1380 c-7 -5 0 -27 21 -66 85 -155 88 -155 156 -29 28 52 46 96
40 96 -7 1 -19 2 -27 3 -28 3 -49 -14 -61 -49 -7 -19 -16 -35 -19 -35 -4 0
-15 18 -25 40 -10 22 -21 40 -24 41 -36 5 -52 5 -61 -1z"/>
<path d="M2403 1375 c-38 -16 -53 -42 -53 -89 0 -54 35 -87 96 -93 40 -4 54
-1 77 17 15 12 26 27 24 33 -4 14 -49 17 -64 5 -18 -14 -57 -5 -61 13 -3 14 7
17 63 17 36 0 69 2 72 5 3 3 0 22 -7 42 -19 58 -80 79 -147 50z m72 -55 c-11
-4 -28 -5 -39 -2 -18 5 -18 6 -1 18 13 10 23 11 39 2 20 -11 20 -11 1 -18z"/>
<path d="M836 1371 c-4 -5 -2 -12 3 -15 5 -4 12 -2 15 3 4 5 2 12 -3 15 -5 4
-12 2 -15 -3z"/>
<path d="M425 1349 c-4 -6 -4 -13 -1 -16 3 -4 6 0 6 7 0 9 5 7 15 -6 15 -18
15 -18 8 0 -5 14 -3 17 7 11 9 -5 11 -4 6 3 -9 15 -33 15 -41 1z"/>
<path d="M511 1337 c-16 -16 -13 -30 5 -23 14 5 15 4 4 -9 -10 -12 -10 -15 4
-15 9 0 16 6 16 13 0 9 2 9 9 -1 6 -11 10 -10 15 4 4 11 2 20 -3 22 -6 2 -9 7
-7 11 8 12 -31 10 -43 -2z"/>
</g>
</svg>
